<svg width="34" height="34" viewBox="0 0 34 34" fill="none" xmlns="http://www.w3.org/2000/svg">
<path d="M16.6504 1C25.2994 1.00021 32.2997 7.96577 32.2998 16.5449C32.2998 25.1241 25.2994 32.0896 16.6504 32.0898C8.00116 32.0898 1 25.1242 1 16.5449C1.00005 7.96564 8.0012 1 16.6504 1Z" stroke="black" stroke-width="2"/>
<g clip-path="url(#clip0_201_2157)">
<path d="M17.2665 25.3522L16.6435 24.9147C15.8233 24.3385 8.63319 19.1475 8.63319 14.4055C8.58667 13.0769 9.07138 11.784 9.98137 10.8094C10.8914 9.83479 12.1526 9.25783 13.4894 9.20459C14.2273 9.2118 14.9533 9.39058 15.6092 9.72664C16.2651 10.0627 16.8327 10.5467 17.2665 11.1398C17.7004 10.5467 18.268 10.0627 18.9239 9.72664C19.5797 9.39058 20.3057 9.2118 21.0436 9.20459C22.3804 9.25783 23.6417 9.83479 24.5517 10.8094C25.4617 11.784 25.9464 13.0769 25.8999 14.4055C25.8999 19.1475 18.7097 24.3385 17.8896 24.9147L17.2665 25.3522ZM13.4894 11.3493C12.7254 11.4031 12.0135 11.7542 11.5084 12.3264C11.0032 12.8986 10.7457 13.6458 10.7915 14.4055C10.7915 17.2051 15.0096 20.9899 17.2665 22.7064C19.5234 20.9906 23.7415 17.2051 23.7415 14.4055C23.7874 13.6458 23.5298 12.8986 23.0247 12.3264C22.5196 11.7542 21.8077 11.4031 21.0436 11.3493C20.2795 11.4031 19.5677 11.7542 19.0625 12.3264C18.5574 12.8986 18.2998 13.6458 18.3457 14.4055H16.1874C16.2332 13.6458 15.9756 12.8986 15.4705 12.3264C14.9654 11.7542 14.2535 11.4031 13.4894 11.3493V11.3493Z" fill="black"/>
</g>
<defs>
<clipPath id="clip0_201_2157">
<rect width="17.2667" height="17.1578" fill="white" transform="translate(8.6333 8.5791)"/>
</clipPath>
</defs>
</svg>
